<svg xmlns="http://www.w3.org/2000/svg" version="1.1" xmlns:xlink="http://www.w3.org/1999/xlink" xmlns:svgjs="http://svgjs.com/svgjs" width="1920" height="1080" preserveAspectRatio="none" viewBox="0 0 1920 1080"><g mask="url(&quot;#SvgjsMask1046&quot;)" fill="none"><path d="M485.52286101153567 860.050433430807L478.7366807292899 1054.381210816724 679.8536383974528 866.8366137130527z" fill="rgba(0, 188, 212, 0.1)" class="triangle-float1"></path><path d="M1079.7447344322159 167.74865814291903L1111.3625916839626 347.0624371500167 1290.6763706910601 315.44457989827004 1259.0585134393136 136.13080089117238z" fill="rgba(0, 188, 212, 0.1)" class="triangle-float3"></path><path d="M616.8189742826099 670.5142233361446L927.4523863643092 822.3868952667372 911.633356955833 520.5418328564134z" fill="rgba(0, 188, 212, 0.1)" class="triangle-float1"></path><path d="M1229.706,951.97C1265.521,952.424,1295.098,926.176,1311.876,894.531C1327.562,864.945,1325.744,830.294,1309.843,800.823C1293.002,769.61,1265.099,744.513,1229.706,742.234C1190.233,739.692,1147.79,754.161,1129.449,789.207C1111.968,822.609,1131.295,860.393,1151.067,892.492C1169.542,922.485,1194.483,951.523,1229.706,951.97" fill="rgba(0, 188, 212, 0.1)" class="triangle-float1"></path><path d="M1074.507244669457 344.0372111450725L903.8732254759138 100.34657675141838 660.1825910822597 270.98059594496146 830.8166102758028 514.6712303386156z" fill="rgba(0, 188, 212, 0.1)" class="triangle-float2"></path></g><defs><mask id="SvgjsMask1046"><rect width="1920" height="1080" fill="#ffffff"></rect></mask><style>
            @keyframes float1 {
                0%{transform: translate(0, 0)}
                50%{transform: translate(-10px, 0)}
                100%{transform: translate(0, 0)}
            }

            .triangle-float1 {
                animation: float1 5s infinite;
            }

            @keyframes float2 {
                0%{transform: translate(0, 0)}
                50%{transform: translate(-5px, -5px)}
                100%{transform: translate(0, 0)}
            }

            .triangle-float2 {
                animation: float2 4s infinite;
            }

            @keyframes float3 {
                0%{transform: translate(0, 0)}
                50%{transform: translate(0, -10px)}
                100%{transform: translate(0, 0)}
            }

            .triangle-float3 {
                animation: float3 6s infinite;
            }
        </style></defs></svg>